<?xml version="1.0" encoding="UTF-8"?><svg xmlns="http://www.w3.org/2000/svg" xmlns:xlink="http://www.w3.org/1999/xlink" fill-opacity="1" color-rendering="auto" color-interpolation="auto" stroke="black" text-rendering="auto" stroke-linecap="square" width="848" stroke-miterlimit="10" stroke-opacity="1" shape-rendering="auto" fill="black" stroke-dasharray="none" font-weight="normal" stroke-width="1" height="743" font-family="'Dialog'" font-style="normal" stroke-linejoin="miter" font-size="12" stroke-dashoffset="0" image-rendering="auto">
  <!--Generated by ySVG 2.5-->
  <defs id="genericDefs"/>
  <g>
    <defs id="defs1">
      <clipPath clipPathUnits="userSpaceOnUse" id="clipPath1">
        <path d="M0 0 L848 0 L848 743 L0 743 L0 0 Z"/>
      </clipPath>
      <clipPath clipPathUnits="userSpaceOnUse" id="clipPath2">
        <path d="M-429 -380 L419 -380 L419 363 L-429 363 L-429 -380 Z"/>
      </clipPath>
      <clipPath clipPathUnits="userSpaceOnUse" id="clipPath3">
        <path d="M0 0 L0 17 L590 17 L590 0 Z"/>
      </clipPath>
      <clipPath clipPathUnits="userSpaceOnUse" id="clipPath4">
        <path d="M0 0 L0 17 L297 17 L297 0 Z"/>
      </clipPath>
      <clipPath clipPathUnits="userSpaceOnUse" id="clipPath5">
        <path d="M0 0 L0 17 L564 17 L564 0 Z"/>
      </clipPath>
      <clipPath clipPathUnits="userSpaceOnUse" id="clipPath6">
        <path d="M0 0 L0 17 L92 17 L92 0 Z"/>
      </clipPath>
      <clipPath clipPathUnits="userSpaceOnUse" id="clipPath7">
        <path d="M0 0 L0 17 L469 17 L469 0 Z"/>
      </clipPath>
      <script type="text/ecmascript"><![CDATA[      var SVGDocument = null;
      var SVGRoot = null;
      var TrueCoords = null;
      var lastElement = null;
      var initialized = null;
      var tipGroup;
      function Init(evt)
      {
         SVGDocument = evt.target.ownerDocument;
         SVGRoot = SVGDocument.documentElement;
         TrueCoords = SVGRoot.createSVGPoint();
         initialized = evt;
      };
      function GetTrueCoords(evt)
      {
         var newScale = SVGRoot.currentScale;
         var translation = SVGRoot.currentTranslate;
         TrueCoords.x = (evt.clientX - translation.x)/newScale;
         TrueCoords.y = (evt.clientY - translation.y)/newScale;
      };
      function HideTooltip( evt )
      {
         if(initialized == null) {
           Init(evt);
         }
         if(tipGroup != null) {
           tipGroup.setAttributeNS(null, 'visibility', 'hidden');
         }
      };
      function ShowTooltip( evt )
      {
         if(initialized == null) {
           Init(evt);
         }
         GetTrueCoords( evt );
         var tipScale = 1/SVGRoot.currentScale;
         var targetElement = evt.currentTarget;
         if ( lastElement != targetElement )
         {
            var targetId = targetElement.getAttributeNS(null, 'id');
            var tipId = 'tooltip.' + targetId;
            tipGroup = SVGDocument.getElementById(tipId);
            var xPos = TrueCoords.x + (10 * tipScale);
            var yPos = TrueCoords.y + (10 * tipScale);
            tipGroup.setAttributeNS(null, 'transform', 'translate(' + xPos + ',' + yPos + ') scale(' + tipScale + ')');
            tipGroup.setAttributeNS(null, 'visibility', 'visible');
         }
      };
]]></script>
    </defs>
    <g fill="white" text-rendering="geometricPrecision" shape-rendering="geometricPrecision" transform="translate(429,380)" stroke="white">
      <rect x="-429" width="848" height="743" y="-380" clip-path="url(#clipPath2)" stroke="none"/>
    </g>
    <g id="y.node.0">
      <a xlink:href="https://proot-me.github.io">
        <g fill="rgb(255,153,0)" text-rendering="geometricPrecision" shape-rendering="geometricPrecision" transform="matrix(1,0,0,1,429,380)" stroke="rgb(255,153,0)">
          <ellipse rx="24.7656" ry="15" cx="0" cy="0" stroke="none"/>
        </g>
        <g>
          <g stroke-linecap="butt" transform="matrix(1,0,0,1,429,380)" text-rendering="geometricPrecision" font-family="'DejaVu Sans'" shape-rendering="geometricPrecision" font-weight="bold" stroke-miterlimit="1.45">
            <text x="-17.7656" xml:space="preserve" y="4.1543" stroke="none">CARE</text>
          </g>
        </g>
        <g text-rendering="geometricPrecision" stroke-miterlimit="1.45" shape-rendering="geometricPrecision" transform="matrix(1,0,0,1,429,380)" stroke-linecap="butt">
          <ellipse rx="24.7656" fill="none" ry="15" cx="0" cy="0"/>
        </g>
      </a>
    </g>
    <g onmouseout="HideTooltip(evt)" id="y.node.1" onmousemove="ShowTooltip(evt)">
      <g fill="rgb(153,255,255)" text-rendering="geometricPrecision" shape-rendering="geometricPrecision" transform="matrix(1,0,0,1,429,380)" stroke="rgb(153,255,255)">
        <ellipse rx="24.4639" ry="15" cx="200.8027" cy="-286.6675" stroke="none"/>
      </g>
      <g>
        <g stroke-linecap="butt" transform="matrix(1,0,0,1,429,380)" text-rendering="geometricPrecision" font-family="'DejaVu Sans'" shape-rendering="geometricPrecision" font-weight="bold" stroke-miterlimit="1.45">
          <text x="183.3388" xml:space="preserve" y="-282.5132" stroke="none">Gogo</text>
        </g>
      </g>
      <g text-rendering="geometricPrecision" stroke-miterlimit="1.45" shape-rendering="geometricPrecision" transform="matrix(1,0,0,1,429,380)" stroke-linecap="butt">
        <ellipse rx="24.4639" fill="none" ry="15" cx="200.8027" cy="-286.6675"/>
      </g>
    </g>
    <g onmouseout="HideTooltip(evt)" id="y.node.2" onmousemove="ShowTooltip(evt)">
      <g fill="rgb(153,255,255)" text-rendering="geometricPrecision" shape-rendering="geometricPrecision" transform="matrix(1,0,0,1,429,380)" stroke="rgb(153,255,255)">
        <ellipse rx="71.2363" ry="15" cx="332.5289" cy="-109.1994" stroke="none"/>
      </g>
      <g>
        <g stroke-linecap="butt" transform="matrix(1,0,0,1,429,380)" text-rendering="geometricPrecision" font-family="'DejaVu Sans'" shape-rendering="geometricPrecision" font-weight="bold" stroke-miterlimit="1.45">
          <text x="268.2926" xml:space="preserve" y="-105.0451" stroke="none">STMicroelectronics</text>
        </g>
      </g>
      <g text-rendering="geometricPrecision" stroke-miterlimit="1.45" shape-rendering="geometricPrecision" transform="matrix(1,0,0,1,429,380)" stroke-linecap="butt">
        <ellipse rx="71.2363" fill="none" ry="15" cx="332.5289" cy="-109.1994"/>
      </g>
    </g>
    <g id="y.node.3">
      <g>
        <g stroke-linecap="butt" transform="matrix(1,0,0,1,429,380)" text-rendering="geometricPrecision" font-family="'DejaVu Sans'" shape-rendering="geometricPrecision" font-weight="bold" stroke-miterlimit="1.45">
          <text x="91.6175" xml:space="preserve" y="-77.4866" stroke="none">is used by</text>
        </g>
      </g>
      <g text-rendering="geometricPrecision" stroke-miterlimit="1.45" shape-rendering="geometricPrecision" transform="matrix(1,0,0,1,429,380)" stroke-linecap="butt">
        <rect fill="none" x="84.6175" width="82.4375" height="30" y="-96.6409"/>
      </g>
    </g>
    <g id="y.node.4">
      <g>
        <g stroke-linecap="butt" transform="matrix(1,0,0,1,429,380)" text-rendering="geometricPrecision" font-family="'DejaVu Sans'" shape-rendering="geometricPrecision" font-weight="bold" stroke-miterlimit="1.45">
          <text x="-156.1552" xml:space="preserve" y="-103.0017" stroke="none">is presented at</text>
        </g>
      </g>
      <g text-rendering="geometricPrecision" stroke-miterlimit="1.45" shape-rendering="geometricPrecision" transform="matrix(1,0,0,1,429,380)" stroke-linecap="butt">
        <rect fill="none" x="-163.1552" width="116.3809" height="30" y="-122.156"/>
      </g>
    </g>
    <g onmouseout="HideTooltip(evt)" id="y.node.5" onmousemove="ShowTooltip(evt)">
      <g fill="rgb(204,255,204)" text-rendering="geometricPrecision" shape-rendering="geometricPrecision" transform="matrix(1,0,0,1,429,380)" stroke="rgb(204,255,204)">
        <ellipse rx="48.124" ry="15" cx="-109.8865" cy="332.3025" stroke="none"/>
      </g>
      <g>
        <g stroke-linecap="butt" transform="matrix(1,0,0,1,429,380)" text-rendering="geometricPrecision" font-family="'DejaVu Sans'" shape-rendering="geometricPrecision" font-weight="bold" stroke-miterlimit="1.45">
          <text x="-151.0105" xml:space="preserve" y="336.4568" stroke="none">Linaro LAVA</text>
        </g>
      </g>
      <g text-rendering="geometricPrecision" stroke-miterlimit="1.45" shape-rendering="geometricPrecision" transform="matrix(1,0,0,1,429,380)" stroke-linecap="butt">
        <ellipse rx="48.124" fill="none" ry="15" cx="-109.8865" cy="332.3025"/>
      </g>
    </g>
    <g id="y.node.6">
      <g>
        <g stroke-linecap="butt" transform="matrix(1,0,0,1,429,380)" text-rendering="geometricPrecision" font-family="'DejaVu Sans'" shape-rendering="geometricPrecision" font-weight="bold" stroke-miterlimit="1.45">
          <text x="59.4702" xml:space="preserve" y="113.7101" stroke="none">is shipped in</text>
        </g>
      </g>
      <g text-rendering="geometricPrecision" stroke-miterlimit="1.45" shape-rendering="geometricPrecision" transform="matrix(1,0,0,1,429,380)" stroke-linecap="butt">
        <rect fill="none" x="52.4702" width="99.9746" height="30" y="94.5558"/>
      </g>
    </g>
    <g id="y.node.7">
      <a xlink:href="https://aur.archlinux.org/packages/care/">
        <g fill="rgb(204,204,255)" text-rendering="geometricPrecision" shape-rendering="geometricPrecision" transform="matrix(1,0,0,1,429,380)" stroke="rgb(204,204,255)">
          <ellipse rx="42.8125" ry="15" cx="313.925" cy="154.7615" stroke="none"/>
        </g>
        <g>
          <g stroke-linecap="butt" transform="matrix(1,0,0,1,429,380)" text-rendering="geometricPrecision" font-family="'DejaVu Sans'" shape-rendering="geometricPrecision" font-weight="bold" stroke-miterlimit="1.45">
            <text x="278.1125" xml:space="preserve" y="158.9158" stroke="none">Arch Linux</text>
          </g>
        </g>
        <g text-rendering="geometricPrecision" stroke-miterlimit="1.45" shape-rendering="geometricPrecision" transform="matrix(1,0,0,1,429,380)" stroke-linecap="butt">
          <ellipse rx="42.8125" fill="none" ry="15" cx="313.925" cy="154.7615"/>
        </g>
      </a>
    </g>
    <g id="y.node.8">
      <a xlink:href="http://packages.gentoo.org/package/sys-apps/proot">
        <g fill="rgb(204,204,255)" text-rendering="geometricPrecision" shape-rendering="geometricPrecision" transform="matrix(1,0,0,1,429,380)" stroke="rgb(204,204,255)">
          <ellipse rx="31.3779" ry="15" cx="123.5722" cy="327.4598" stroke="none"/>
        </g>
        <g>
          <g stroke-linecap="butt" transform="matrix(1,0,0,1,429,380)" text-rendering="geometricPrecision" font-family="'DejaVu Sans'" shape-rendering="geometricPrecision" font-weight="bold" stroke-miterlimit="1.45">
            <text x="99.1942" xml:space="preserve" y="331.6141" stroke="none">Gentoo</text>
          </g>
        </g>
        <g text-rendering="geometricPrecision" stroke-miterlimit="1.45" shape-rendering="geometricPrecision" transform="matrix(1,0,0,1,429,380)" stroke-linecap="butt">
          <ellipse rx="31.3779" fill="none" ry="15" cx="123.5722" cy="327.4598"/>
        </g>
      </a>
    </g>
    <g id="y.node.9">
      <a xlink:href="http://www.slideshare.net/linaroorg/lcu14-211-lava-use-cases-sw-testing-reproducing-a-lava-failures-locally-using-care">
        <g fill="rgb(255,255,153)" text-rendering="geometricPrecision" shape-rendering="geometricPrecision" transform="matrix(1,0,0,1,429,380)" stroke="rgb(255,255,153)">
          <ellipse rx="76.7207" ry="15" cx="8.6604" cy="-349.8928" stroke="none"/>
        </g>
        <g>
          <g stroke-linecap="butt" transform="matrix(1,0,0,1,429,380)" text-rendering="geometricPrecision" font-family="'DejaVu Sans'" shape-rendering="geometricPrecision" font-weight="bold" stroke-miterlimit="1.45">
            <text x="-61.0603" xml:space="preserve" y="-345.7386" stroke="none">Linaro Connect 2014</text>
          </g>
        </g>
        <g text-rendering="geometricPrecision" stroke-miterlimit="1.45" shape-rendering="geometricPrecision" transform="matrix(1,0,0,1,429,380)" stroke-linecap="butt">
          <ellipse rx="76.7207" fill="none" ry="15" cx="8.6604" cy="-349.8928"/>
        </g>
      </a>
    </g>
    <g id="y.node.10">
      <a xlink:href="http://ctuning.org/cm/wiki/index.php?title=Events:TRUST2014">
        <g fill="rgb(255,255,153)" text-rendering="geometricPrecision" shape-rendering="geometricPrecision" transform="matrix(1,0,0,1,429,380)" stroke="rgb(255,255,153)">
          <ellipse rx="47.7871" ry="15" cx="-183.2822" cy="-298.1738" stroke="none"/>
        </g>
        <g>
          <g stroke-linecap="butt" transform="matrix(1,0,0,1,429,380)" text-rendering="geometricPrecision" font-family="'DejaVu Sans'" shape-rendering="geometricPrecision" font-weight="bold" stroke-miterlimit="1.45">
            <text x="-224.0693" xml:space="preserve" y="-294.0195" stroke="none">TRUST 2014</text>
          </g>
        </g>
        <g text-rendering="geometricPrecision" stroke-miterlimit="1.45" shape-rendering="geometricPrecision" transform="matrix(1,0,0,1,429,380)" stroke-linecap="butt">
          <ellipse rx="47.7871" fill="none" ry="15" cx="-183.2822" cy="-298.1738"/>
        </g>
      </a>
    </g>
    <g id="y.node.11">
      <a xlink:href="http://www.openmole.org/documentation/tutorials/embed-r-scilab/">
        <g fill="rgb(204,255,204)" text-rendering="geometricPrecision" shape-rendering="geometricPrecision" transform="matrix(1,0,0,1,429,380)" stroke="rgb(204,255,204)">
          <ellipse rx="40.9551" ry="15" cx="-282.3731" cy="206.7981" stroke="none"/>
        </g>
        <g>
          <g stroke-linecap="butt" transform="matrix(1,0,0,1,429,380)" text-rendering="geometricPrecision" font-family="'DejaVu Sans'" shape-rendering="geometricPrecision" font-weight="bold" stroke-miterlimit="1.45">
            <text x="-316.3281" xml:space="preserve" y="210.9524" stroke="none">OpenMole</text>
          </g>
        </g>
        <g text-rendering="geometricPrecision" stroke-miterlimit="1.45" shape-rendering="geometricPrecision" transform="matrix(1,0,0,1,429,380)" stroke-linecap="butt">
          <ellipse rx="40.9551" fill="none" ry="15" cx="-282.3731" cy="206.7981"/>
        </g>
      </a>
    </g>
    <g onmouseout="HideTooltip(evt)" id="y.node.12" onmousemove="ShowTooltip(evt)">
      <a xlink:href="https://archive.fosdem.org/2014/schedule/event/syscall/">
        <g fill="rgb(255,255,153)" text-rendering="geometricPrecision" shape-rendering="geometricPrecision" transform="matrix(1,0,0,1,429,380)" stroke="rgb(255,255,153)">
          <ellipse rx="52.1963" ry="15" cx="-305.128" cy="-171.4553" stroke="none"/>
        </g>
        <g>
          <g stroke-linecap="butt" transform="matrix(1,0,0,1,429,380)" text-rendering="geometricPrecision" font-family="'DejaVu Sans'" shape-rendering="geometricPrecision" font-weight="bold" stroke-miterlimit="1.45">
            <text x="-350.3243" xml:space="preserve" y="-167.301" stroke="none">Fosdem 2012</text>
          </g>
        </g>
        <g text-rendering="geometricPrecision" stroke-miterlimit="1.45" shape-rendering="geometricPrecision" transform="matrix(1,0,0,1,429,380)" stroke-linecap="butt">
          <ellipse rx="52.1963" fill="none" ry="15" cx="-305.128" cy="-171.4553"/>
        </g>
      </a>
    </g>
    <g onmouseout="HideTooltip(evt)" id="y.node.13" onmousemove="ShowTooltip(evt)">
      <g fill="rgb(255,255,153)" text-rendering="geometricPrecision" shape-rendering="geometricPrecision" transform="matrix(1,0,0,1,429,380)" stroke="rgb(255,255,153)">
        <ellipse rx="63.8477" ry="15" cx="-349.7193" cy="14.0138" stroke="none"/>
      </g>
      <g>
        <g stroke-linecap="butt" transform="matrix(1,0,0,1,429,380)" text-rendering="geometricPrecision" font-family="'DejaVu Sans'" shape-rendering="geometricPrecision" font-weight="bold" stroke-miterlimit="1.45">
          <text x="-406.567" xml:space="preserve" y="18.1681" stroke="none">many web pages</text>
        </g>
      </g>
      <g text-rendering="geometricPrecision" stroke-miterlimit="1.45" shape-rendering="geometricPrecision" transform="matrix(1,0,0,1,429,380)" stroke-linecap="butt">
        <ellipse rx="63.8477" fill="none" ry="15" cx="-349.7193" cy="14.0138"/>
      </g>
    </g>
    <g id="y.node.14">
      <g>
        <g stroke-linecap="butt" transform="matrix(1,0,0,1,429,380)" text-rendering="geometricPrecision" font-family="'DejaVu Sans'" shape-rendering="geometricPrecision" font-weight="bold" stroke-miterlimit="1.45">
          <text x="-119.413" xml:space="preserve" y="126.2953" stroke="none">is used in</text>
        </g>
      </g>
      <g text-rendering="geometricPrecision" stroke-miterlimit="1.45" shape-rendering="geometricPrecision" transform="matrix(1,0,0,1,429,380)" stroke-linecap="butt">
        <rect fill="none" x="-126.413" width="78.6816" height="30" y="107.141"/>
      </g>
    </g>
    <g id="y.edge.1">
      <g text-rendering="geometricPrecision" stroke-miterlimit="1.45" shape-rendering="geometricPrecision" transform="matrix(1,0,0,1,429,380)" stroke-linecap="butt">
        <path fill="none" d="M16.9002 -10.9646 L96.0049 -62.2867"/>
      </g>
      <g text-rendering="geometricPrecision" stroke-miterlimit="1.45" shape-rendering="geometricPrecision" transform="matrix(1,0,0,1,429,380)" stroke-linecap="butt">
        <path d="M102.7162 -66.6409 L89.9279 -64.3041 L95.166 -61.7424 L95.3707 -55.915 Z" stroke="none"/>
      </g>
    </g>
    <g id="y.edge.9">
      <g text-rendering="geometricPrecision" stroke-miterlimit="1.45" shape-rendering="geometricPrecision" transform="matrix(1,0,0,1,429,380)" stroke-linecap="butt">
        <path fill="none" d="M167.055 -87.1366 L264.4137 -100.1176"/>
        <path d="M272.3435 -101.1749 L259.788 -104.5451 L263.4225 -99.9854 L261.1096 -94.6328 Z" stroke="none"/>
      </g>
    </g>
    <g id="y.edge.10">
      <g text-rendering="geometricPrecision" stroke-miterlimit="1.45" shape-rendering="geometricPrecision" transform="matrix(1,0,0,1,429,380)" stroke-linecap="butt">
        <path fill="none" d="M131.3209 -96.6409 L192.7037 -264.5174"/>
        <path d="M195.4509 -272.0309 L186.6341 -262.4776 L192.3602 -263.5782 L196.026 -259.0436 Z" stroke="none"/>
      </g>
    </g>
    <g id="y.edge.2">
      <g text-rendering="geometricPrecision" stroke-miterlimit="1.45" shape-rendering="geometricPrecision" transform="matrix(1,0,0,1,429,380)" stroke-linecap="butt">
        <path fill="none" d="M-12.6366 -12.9004 L-84.6733 -86.441"/>
        <path d="M-90.2715 -92.156 L-85.4462 -80.0847 L-83.9736 -85.7266 L-78.3024 -87.0823 Z" stroke="none"/>
      </g>
    </g>
    <g id="y.edge.0">
      <g text-rendering="geometricPrecision" stroke-miterlimit="1.45" shape-rendering="geometricPrecision" transform="matrix(1,0,0,1,429,380)" stroke-linecap="butt">
        <path fill="none" d="M12.206 13.0516 L82.9649 88.7128"/>
        <path d="M88.4293 94.5558 L83.8846 82.3761 L82.2819 87.9824 L76.5809 89.2066 Z" stroke="none"/>
      </g>
    </g>
    <g id="y.edge.8">
      <g text-rendering="geometricPrecision" stroke-miterlimit="1.45" shape-rendering="geometricPrecision" transform="matrix(1,0,0,1,429,380)" stroke-linecap="butt">
        <path fill="none" d="M152.4448 120.2416 L269.5548 145.2764"/>
        <path d="M277.378 146.9488 L266.6884 139.5507 L268.5769 145.0674 L264.5979 149.3298 Z" stroke="none"/>
      </g>
    </g>
    <g id="y.edge.7">
      <g text-rendering="geometricPrecision" stroke-miterlimit="1.45" shape-rendering="geometricPrecision" transform="matrix(1,0,0,1,429,380)" stroke-linecap="butt">
        <path fill="none" d="M103.9109 124.5558 L121.3486 304.5132"/>
        <path d="M122.1202 312.4759 L125.9396 300.0496 L121.2522 303.5178 L115.9862 301.014 Z" stroke="none"/>
      </g>
    </g>
    <g id="y.edge.3">
      <g text-rendering="geometricPrecision" stroke-miterlimit="1.45" shape-rendering="geometricPrecision" transform="matrix(1,0,0,1,429,380)" stroke-linecap="butt">
        <path fill="none" d="M-97.9432 -122.156 L-1.7235 -327.7098"/>
        <path d="M1.6681 -334.9553 L-7.9478 -326.2068 L-2.1475 -326.8041 L1.1091 -321.9673 Z" stroke="none"/>
      </g>
    </g>
    <g id="y.edge.4">
      <g text-rendering="geometricPrecision" stroke-miterlimit="1.45" shape-rendering="geometricPrecision" transform="matrix(1,0,0,1,429,380)" stroke-linecap="butt">
        <path fill="none" d="M-111.1147 -122.156 L-174.1477 -275.8945"/>
        <path d="M-177.1825 -283.2965 L-177.2565 -270.2968 L-173.7683 -274.9693 L-168.004 -274.0903 Z" stroke="none"/>
      </g>
    </g>
    <g id="y.edge.5">
      <g text-rendering="geometricPrecision" stroke-miterlimit="1.45" shape-rendering="geometricPrecision" transform="matrix(1,0,0,1,429,380)" stroke-linecap="butt">
        <path fill="none" d="M-151.6596 -122.156 L-262.71 -157.8292"/>
        <path d="M-270.3267 -160.2759 L-260.4309 -151.8454 L-261.7579 -157.5233 L-257.3725 -161.3662 Z" stroke="none"/>
      </g>
    </g>
    <g id="y.edge.6">
      <g text-rendering="geometricPrecision" stroke-miterlimit="1.45" shape-rendering="geometricPrecision" transform="matrix(1,0,0,1,429,380)" stroke-linecap="butt">
        <path fill="none" d="M-135.2637 -92.156 L-315.1767 -3.0871"/>
        <path d="M-322.3462 0.4623 L-309.3736 -0.3808 L-314.2805 -3.5307 L-313.8103 -9.3427 Z" stroke="none"/>
      </g>
    </g>
    <g id="y.edge.12">
      <g text-rendering="geometricPrecision" stroke-miterlimit="1.45" shape-rendering="geometricPrecision" transform="matrix(1,0,0,1,429,380)" stroke-linecap="butt">
        <path fill="none" d="M-9.8172 13.7711 L-71.7351 100.6269"/>
        <path d="M-76.379 107.141 L-65.3418 100.2722 L-71.1546 99.8126 L-73.4845 94.4674 Z" stroke="none"/>
      </g>
    </g>
    <g id="y.edge.11">
      <g text-rendering="geometricPrecision" stroke-miterlimit="1.45" shape-rendering="geometricPrecision" transform="matrix(1,0,0,1,429,380)" stroke-linecap="butt">
        <path fill="none" d="M-121.6767 137.141 L-248.6006 192.1587"/>
        <path d="M-255.9406 195.3404 L-242.9419 195.1554 L-247.683 191.761 L-246.9191 185.9803 Z" stroke="none"/>
      </g>
    </g>
    <g id="y.edge.13">
      <g text-rendering="geometricPrecision" stroke-miterlimit="1.45" shape-rendering="geometricPrecision" transform="matrix(1,0,0,1,429,380)" stroke-linecap="butt">
        <path fill="none" d="M-88.7005 137.141 L-107.3957 309.3578"/>
        <path d="M-108.2591 317.3111 L-101.9932 305.9208 L-107.2878 308.3636 L-111.9348 304.8416 Z" stroke="none"/>
      </g>
    </g>
    <g visibility="hidden" id="tooltip.y.node.1" pointer-events="none">
      <g fill="rgb(195,212,232)" text-rendering="geometricPrecision" shape-rendering="geometricPrecision" font-family="sans-serif" stroke="rgb(195,212,232)">
        <rect x="0" width="590" height="17" y="0" clip-path="url(#clipPath3)" stroke="none"/>
        <text fill="black" x="4" xml:space="preserve" y="13" clip-path="url(#clipPath3)" stroke="none">Gogo uses CARE to reproduce -- bit accurately -- the build of an embedded Linux distribution.</text>
      </g>
      <g fill="rgb(49,106,196)" text-rendering="geometricPrecision" shape-rendering="geometricPrecision" font-family="sans-serif" stroke="rgb(49,106,196)">
        <path d="M0 0 L590 0 L590 17 L0 17 L0 0 ZM1 1 L589 1 L589 16 L1 16 L1 1 Z" clip-path="url(#clipPath3)" fill-rule="evenodd" stroke="none"/>
      </g>
    </g>
    <g visibility="hidden" id="tooltip.y.node.2" pointer-events="none">
      <g fill="rgb(195,212,232)" text-rendering="geometricPrecision" shape-rendering="geometricPrecision" font-family="sans-serif" stroke="rgb(195,212,232)">
        <rect x="0" width="297" height="17" y="0" clip-path="url(#clipPath4)" stroke="none"/>
        <text fill="black" x="4" xml:space="preserve" y="13" clip-path="url(#clipPath4)" stroke="none">Copyright holder and unique sponsor of CARE.</text>
        <text fill="black" x="293" xml:space="preserve" y="13" clip-path="url(#clipPath4)" stroke="none"> </text>
      </g>
      <g fill="rgb(49,106,196)" text-rendering="geometricPrecision" shape-rendering="geometricPrecision" font-family="sans-serif" stroke="rgb(49,106,196)">
        <path d="M0 0 L297 0 L297 17 L0 17 L0 0 ZM1 1 L296 1 L296 16 L1 16 L1 1 Z" clip-path="url(#clipPath4)" fill-rule="evenodd" stroke="none"/>
      </g>
    </g>
    <g visibility="hidden" id="tooltip.y.node.5" pointer-events="none">
      <g fill="rgb(195,212,232)" text-rendering="geometricPrecision" shape-rendering="geometricPrecision" font-family="sans-serif" stroke="rgb(195,212,232)">
        <rect x="0" width="564" height="17" y="0" clip-path="url(#clipPath5)" stroke="none"/>
        <text fill="black" x="4" xml:space="preserve" y="13" clip-path="url(#clipPath5)" stroke="none">Linaro LAVA uses CARE to boot some ST boards and to archives failures during validation</text>
      </g>
      <g fill="rgb(49,106,196)" text-rendering="geometricPrecision" shape-rendering="geometricPrecision" font-family="sans-serif" stroke="rgb(49,106,196)">
        <path d="M0 0 L564 0 L564 17 L0 17 L0 0 ZM1 1 L563 1 L563 16 L1 16 L1 1 Z" clip-path="url(#clipPath5)" fill-rule="evenodd" stroke="none"/>
      </g>
    </g>
    <g visibility="hidden" id="tooltip.y.node.12" pointer-events="none">
      <g fill="rgb(195,212,232)" text-rendering="geometricPrecision" shape-rendering="geometricPrecision" font-family="sans-serif" stroke="rgb(195,212,232)">
        <rect x="0" width="92" height="17" y="0" clip-path="url(#clipPath6)" stroke="none"/>
        <text fill="black" x="4" xml:space="preserve" y="13" clip-path="url(#clipPath6)" stroke="none">Lightning talk</text>
      </g>
      <g fill="rgb(49,106,196)" text-rendering="geometricPrecision" shape-rendering="geometricPrecision" font-family="sans-serif" stroke="rgb(49,106,196)">
        <path d="M0 0 L92 0 L92 17 L0 17 L0 0 ZM1 1 L91 1 L91 16 L1 16 L1 1 Z" clip-path="url(#clipPath6)" fill-rule="evenodd" stroke="none"/>
      </g>
    </g>
    <g visibility="hidden" id="tooltip.y.node.13" pointer-events="none">
      <g fill="rgb(195,212,232)" text-rendering="geometricPrecision" shape-rendering="geometricPrecision" font-family="sans-serif" stroke="rgb(195,212,232)">
        <rect x="0" width="469" height="17" y="0" clip-path="url(#clipPath7)" stroke="none"/>
        <text fill="black" x="4" xml:space="preserve" y="13" clip-path="url(#clipPath7)" stroke="none">About 100 domains references https://proot-me.github.io according to Google</text>
      </g>
      <g fill="rgb(49,106,196)" text-rendering="geometricPrecision" shape-rendering="geometricPrecision" font-family="sans-serif" stroke="rgb(49,106,196)">
        <path d="M0 0 L469 0 L469 17 L0 17 L0 0 ZM1 1 L468 1 L468 16 L1 16 L1 1 Z" clip-path="url(#clipPath7)" fill-rule="evenodd" stroke="none"/>
      </g>
    </g>
  </g>
</svg>
