<?xml version="1.0" encoding="UTF-8"?><svg xmlns="http://www.w3.org/2000/svg" xmlns:xlink="http://www.w3.org/1999/xlink" fill-opacity="1" color-rendering="auto" color-interpolation="auto" stroke="black" text-rendering="auto" stroke-linecap="square" width="943" stroke-miterlimit="10" stroke-opacity="1" shape-rendering="auto" fill="black" stroke-dasharray="none" font-weight="normal" stroke-width="1" height="859" font-family="'Dialog'" font-style="normal" stroke-linejoin="miter" font-size="12" stroke-dashoffset="0" image-rendering="auto">
  <!--Generated by ySVG 2.5-->
  <defs id="genericDefs"/>
  <g>
    <defs id="defs1">
      <clipPath clipPathUnits="userSpaceOnUse" id="clipPath1">
        <path d="M0 0 L943 0 L943 859 L0 859 L0 0 Z"/>
      </clipPath>
      <clipPath clipPathUnits="userSpaceOnUse" id="clipPath2">
        <path d="M-478 -430 L465 -430 L465 429 L-478 429 L-478 -430 Z"/>
      </clipPath>
      <clipPath clipPathUnits="userSpaceOnUse" id="clipPath3">
        <path d="M0 0 L0 17 L173 17 L173 0 Z"/>
      </clipPath>
      <clipPath clipPathUnits="userSpaceOnUse" id="clipPath4">
        <path d="M0 0 L0 17 L302 17 L302 0 Z"/>
      </clipPath>
      <clipPath clipPathUnits="userSpaceOnUse" id="clipPath5">
        <path d="M0 0 L0 17 L92 17 L92 0 Z"/>
      </clipPath>
      <clipPath clipPathUnits="userSpaceOnUse" id="clipPath6">
        <path d="M0 0 L0 17 L659 17 L659 0 Z"/>
      </clipPath>
      <clipPath clipPathUnits="userSpaceOnUse" id="clipPath7">
        <path d="M0 0 L0 17 L432 17 L432 0 Z"/>
      </clipPath>
      <clipPath clipPathUnits="userSpaceOnUse" id="clipPath8">
        <path d="M0 0 L0 17 L496 17 L496 0 Z"/>
      </clipPath>
      <script type="text/ecmascript"><![CDATA[      var SVGDocument = null;
      var SVGRoot = null;
      var TrueCoords = null;
      var lastElement = null;
      var initialized = null;
      var tipGroup;
      function Init(evt)
      {
         SVGDocument = evt.target.ownerDocument;
         SVGRoot = SVGDocument.documentElement;
         TrueCoords = SVGRoot.createSVGPoint();
         initialized = evt;
      };
      function GetTrueCoords(evt)
      {
         var newScale = SVGRoot.currentScale;
         var translation = SVGRoot.currentTranslate;
         TrueCoords.x = (evt.clientX - translation.x)/newScale;
         TrueCoords.y = (evt.clientY - translation.y)/newScale;
      };
      function HideTooltip( evt )
      {
         if(initialized == null) {
           Init(evt);
         }
         if(tipGroup != null) {
           tipGroup.setAttributeNS(null, 'visibility', 'hidden');
         }
      };
      function ShowTooltip( evt )
      {
         if(initialized == null) {
           Init(evt);
         }
         GetTrueCoords( evt );
         var tipScale = 1/SVGRoot.currentScale;
         var targetElement = evt.currentTarget;
         if ( lastElement != targetElement )
         {
            var targetId = targetElement.getAttributeNS(null, 'id');
            var tipId = 'tooltip.' + targetId;
            tipGroup = SVGDocument.getElementById(tipId);
            var xPos = TrueCoords.x + (10 * tipScale);
            var yPos = TrueCoords.y + (10 * tipScale);
            tipGroup.setAttributeNS(null, 'transform', 'translate(' + xPos + ',' + yPos + ') scale(' + tipScale + ')');
            tipGroup.setAttributeNS(null, 'visibility', 'visible');
         }
      };
]]></script>
    </defs>
    <g fill="white" text-rendering="geometricPrecision" shape-rendering="geometricPrecision" transform="translate(478,430)" stroke="white">
      <rect x="-478" width="943" height="859" y="-430" clip-path="url(#clipPath2)" stroke="none"/>
    </g>
    <g id="y.node.0">
      <a xlink:href="http://proot.me">
        <g fill="rgb(255,153,0)" text-rendering="geometricPrecision" shape-rendering="geometricPrecision" transform="matrix(1,0,0,1,478,430)" stroke="rgb(255,153,0)">
          <ellipse rx="27.1299" ry="15" cx="0" cy="0" stroke="none"/>
        </g>
        <g>
          <g stroke-linecap="butt" transform="matrix(1,0,0,1,478,430)" text-rendering="geometricPrecision" font-family="'DejaVu Sans'" shape-rendering="geometricPrecision" font-weight="bold" stroke-miterlimit="1.45">
            <text x="-20.1299" xml:space="preserve" y="4.1543" stroke="none">PRoot</text>
          </g>
        </g>
        <g text-rendering="geometricPrecision" stroke-miterlimit="1.45" shape-rendering="geometricPrecision" transform="matrix(1,0,0,1,478,430)" stroke-linecap="butt">
          <ellipse rx="27.1299" fill="none" ry="15" cx="0" cy="0"/>
        </g>
      </a>
    </g>
    <g id="y.node.1">
      <a xlink:href="https://github.com/ev3dev/brickstrap">
        <g fill="rgb(204,255,204)" text-rendering="geometricPrecision" shape-rendering="geometricPrecision" transform="matrix(1,0,0,1,478,430)" stroke="rgb(204,255,204)">
          <ellipse rx="42.6279" ry="15" cx="51.3165" cy="396.6946" stroke="none"/>
        </g>
        <g>
          <g stroke-linecap="butt" transform="matrix(1,0,0,1,478,430)" text-rendering="geometricPrecision" font-family="'DejaVu Sans'" shape-rendering="geometricPrecision" font-weight="bold" stroke-miterlimit="1.45">
            <text x="15.6886" xml:space="preserve" y="400.8489" stroke="none">BrickStrap</text>
          </g>
        </g>
        <g text-rendering="geometricPrecision" stroke-miterlimit="1.45" shape-rendering="geometricPrecision" transform="matrix(1,0,0,1,478,430)" stroke-linecap="butt">
          <ellipse rx="42.6279" fill="none" ry="15" cx="51.3165" cy="396.6946"/>
        </g>
      </a>
    </g>
    <g id="y.node.2">
      <a xlink:href="https://packages.debian.org/sid/proot">
        <g fill="rgb(204,204,255)" text-rendering="geometricPrecision" shape-rendering="geometricPrecision" transform="matrix(1,0,0,1,478,430)" stroke="rgb(204,204,255)">
          <ellipse rx="30.7217" ry="15" cx="338.6805" cy="-212.8274" stroke="none"/>
        </g>
        <g>
          <g stroke-linecap="butt" transform="matrix(1,0,0,1,478,430)" text-rendering="geometricPrecision" font-family="'DejaVu Sans'" shape-rendering="geometricPrecision" font-weight="bold" stroke-miterlimit="1.45">
            <text x="314.9589" xml:space="preserve" y="-208.6731" stroke="none">Debian</text>
          </g>
        </g>
        <g text-rendering="geometricPrecision" stroke-miterlimit="1.45" shape-rendering="geometricPrecision" transform="matrix(1,0,0,1,478,430)" stroke-linecap="butt">
          <ellipse rx="30.7217" fill="none" ry="15" cx="338.6805" cy="-212.8274"/>
        </g>
      </a>
    </g>
    <g id="y.node.3">
      <a xlink:href="https://github.com/squeaky-pl/portable-pypy">
        <g fill="rgb(204,255,204)" text-rendering="geometricPrecision" shape-rendering="geometricPrecision" transform="matrix(1,0,0,1,478,430)" stroke="rgb(204,255,204)">
          <ellipse rx="54.4199" ry="15" cx="160.9412" cy="366.1939" stroke="none"/>
        </g>
        <g>
          <g stroke-linecap="butt" transform="matrix(1,0,0,1,478,430)" text-rendering="geometricPrecision" font-family="'DejaVu Sans'" shape-rendering="geometricPrecision" font-weight="bold" stroke-miterlimit="1.45">
            <text x="113.5213" xml:space="preserve" y="370.3481" stroke="none">Portable Pypy</text>
          </g>
        </g>
        <g text-rendering="geometricPrecision" stroke-miterlimit="1.45" shape-rendering="geometricPrecision" transform="matrix(1,0,0,1,478,430)" stroke-linecap="butt">
          <ellipse rx="54.4199" fill="none" ry="15" cx="160.9412" cy="366.1939"/>
        </g>
      </a>
    </g>
    <g id="y.node.4">
      <a xlink:href="https://play.google.com/store/apps/details?id=champion.gnuroot">
        <g fill="rgb(255,204,204)" text-rendering="geometricPrecision" shape-rendering="geometricPrecision" transform="matrix(1,0,0,1,478,430)" stroke="rgb(255,204,204)">
          <ellipse rx="37.5508" ry="15" cx="-342.0064" cy="207.4406" stroke="none"/>
        </g>
        <g>
          <g stroke-linecap="butt" transform="matrix(1,0,0,1,478,430)" text-rendering="geometricPrecision" font-family="'DejaVu Sans'" shape-rendering="geometricPrecision" font-weight="bold" stroke-miterlimit="1.45">
            <text x="-372.5572" xml:space="preserve" y="211.5949" stroke="none">GNURoot</text>
          </g>
        </g>
        <g text-rendering="geometricPrecision" stroke-miterlimit="1.45" shape-rendering="geometricPrecision" transform="matrix(1,0,0,1,478,430)" stroke-linecap="butt">
          <ellipse rx="37.5508" fill="none" ry="15" cx="-342.0064" cy="207.4406"/>
        </g>
      </a>
    </g>
    <g onmouseout="HideTooltip(evt)" id="y.node.5" onmousemove="ShowTooltip(evt)">
      <a xlink:href="https://play.google.com/store/apps/details?id=com.cuntubuntu">
        <g fill="rgb(255,204,204)" text-rendering="geometricPrecision" shape-rendering="geometricPrecision" transform="matrix(1,0,0,1,478,430)" stroke="rgb(255,204,204)">
          <ellipse rx="55.2754" ry="15" cx="-385.4374" cy="106.9487" stroke="none"/>
        </g>
        <g>
          <g stroke-linecap="butt" transform="matrix(1,0,0,1,478,430)" text-rendering="geometricPrecision" font-family="'DejaVu Sans'" shape-rendering="geometricPrecision" font-weight="bold" stroke-miterlimit="1.45">
            <text x="-433.7128" xml:space="preserve" y="111.103" stroke="none">Debian noroot</text>
          </g>
        </g>
        <g text-rendering="geometricPrecision" stroke-miterlimit="1.45" shape-rendering="geometricPrecision" transform="matrix(1,0,0,1,478,430)" stroke-linecap="butt">
          <ellipse rx="55.2754" fill="none" ry="15" cx="-385.4374" cy="106.9487"/>
        </g>
      </a>
    </g>
    <g id="y.node.6">
      <g>
        <g stroke-linecap="butt" transform="matrix(1,0,0,1,478,430)" text-rendering="geometricPrecision" font-family="'DejaVu Sans'" shape-rendering="geometricPrecision" font-weight="bold" stroke-miterlimit="1.45">
          <text x="-189.8772" xml:space="preserve" y="84.0972" stroke="none">is core for</text>
        </g>
      </g>
      <g text-rendering="geometricPrecision" stroke-miterlimit="1.45" shape-rendering="geometricPrecision" transform="matrix(1,0,0,1,478,430)" stroke-linecap="butt">
        <rect fill="none" x="-196.8772" width="82.4082" height="30" y="64.9429"/>
      </g>
    </g>
    <g id="y.node.7">
      <g>
        <g stroke-linecap="butt" transform="matrix(1,0,0,1,478,430)" text-rendering="geometricPrecision" font-family="'DejaVu Sans'" shape-rendering="geometricPrecision" font-weight="bold" stroke-miterlimit="1.45">
          <text x="116.391" xml:space="preserve" y="96.3706" stroke="none">is used in</text>
        </g>
      </g>
      <g text-rendering="geometricPrecision" stroke-miterlimit="1.45" shape-rendering="geometricPrecision" transform="matrix(1,0,0,1,478,430)" stroke-linecap="butt">
        <rect fill="none" x="109.391" width="78.6816" height="30" y="77.2163"/>
      </g>
    </g>
    <g id="y.node.8">
      <g>
        <g stroke-linecap="butt" transform="matrix(1,0,0,1,478,430)" text-rendering="geometricPrecision" font-family="'DejaVu Sans'" shape-rendering="geometricPrecision" font-weight="bold" stroke-miterlimit="1.45">
          <text x="37.9498" xml:space="preserve" y="-151.0043" stroke="none">is shipped in</text>
        </g>
      </g>
      <g text-rendering="geometricPrecision" stroke-miterlimit="1.45" shape-rendering="geometricPrecision" transform="matrix(1,0,0,1,478,430)" stroke-linecap="butt">
        <rect fill="none" x="30.9498" width="99.9746" height="30" y="-170.1586"/>
      </g>
    </g>
    <g id="y.node.9">
      <g>
        <g stroke-linecap="butt" transform="matrix(1,0,0,1,478,430)" text-rendering="geometricPrecision" font-family="'DejaVu Sans'" shape-rendering="geometricPrecision" font-weight="bold" stroke-miterlimit="1.45">
          <text x="-189.9706" xml:space="preserve" y="-102.4528" stroke="none">is presented at</text>
        </g>
      </g>
      <g text-rendering="geometricPrecision" stroke-miterlimit="1.45" shape-rendering="geometricPrecision" transform="matrix(1,0,0,1,478,430)" stroke-linecap="butt">
        <rect fill="none" x="-196.9706" width="116.3809" height="30" y="-121.607"/>
      </g>
    </g>
    <g onmouseout="HideTooltip(evt)" id="y.node.10" onmousemove="ShowTooltip(evt)">
      <g fill="rgb(153,255,255)" text-rendering="geometricPrecision" shape-rendering="geometricPrecision" transform="matrix(1,0,0,1,478,430)" stroke="rgb(153,255,255)">
        <ellipse rx="71.2363" ry="15" cx="-143.4763" cy="373.3826" stroke="none"/>
      </g>
      <g>
        <g stroke-linecap="butt" transform="matrix(1,0,0,1,478,430)" text-rendering="geometricPrecision" font-family="'DejaVu Sans'" shape-rendering="geometricPrecision" font-weight="bold" stroke-miterlimit="1.45">
          <text x="-207.7126" xml:space="preserve" y="377.5369" stroke="none">STMicroelectronics</text>
        </g>
      </g>
      <g text-rendering="geometricPrecision" stroke-miterlimit="1.45" shape-rendering="geometricPrecision" transform="matrix(1,0,0,1,478,430)" stroke-linecap="butt">
        <ellipse rx="71.2363" fill="none" ry="15" cx="-143.4763" cy="373.3826"/>
      </g>
    </g>
    <g onmouseout="HideTooltip(evt)" id="y.node.11" onmousemove="ShowTooltip(evt)">
      <a xlink:href="https://archive.fosdem.org/2014/schedule/event/syscall/">
        <g fill="rgb(255,255,153)" text-rendering="geometricPrecision" shape-rendering="geometricPrecision" transform="matrix(1,0,0,1,478,430)" stroke="rgb(255,255,153)">
          <ellipse rx="52.1963" ry="15" cx="-118.5362" cy="-382.0329" stroke="none"/>
        </g>
        <g>
          <g stroke-linecap="butt" transform="matrix(1,0,0,1,478,430)" text-rendering="geometricPrecision" font-family="'DejaVu Sans'" shape-rendering="geometricPrecision" font-weight="bold" stroke-miterlimit="1.45">
            <text x="-163.7325" xml:space="preserve" y="-377.8786" stroke="none">Fosdem 2012</text>
          </g>
        </g>
        <g text-rendering="geometricPrecision" stroke-miterlimit="1.45" shape-rendering="geometricPrecision" transform="matrix(1,0,0,1,478,430)" stroke-linecap="butt">
          <ellipse rx="52.1963" fill="none" ry="15" cx="-118.5362" cy="-382.0329"/>
        </g>
      </a>
    </g>
    <g id="y.node.12">
      <a xlink:href="http://reproducible.io">
        <g fill="rgb(255,204,204)" text-rendering="geometricPrecision" shape-rendering="geometricPrecision" transform="matrix(1,0,0,1,478,430)" stroke="rgb(255,204,204)">
          <ellipse rx="24.7656" ry="15" cx="-292.958" cy="272.352" stroke="none"/>
        </g>
        <g>
          <g stroke-linecap="butt" transform="matrix(1,0,0,1,478,430)" text-rendering="geometricPrecision" font-family="'DejaVu Sans'" shape-rendering="geometricPrecision" font-weight="bold" stroke-miterlimit="1.45">
            <text x="-310.7236" xml:space="preserve" y="276.5063" stroke="none">CARE</text>
          </g>
        </g>
        <g text-rendering="geometricPrecision" stroke-miterlimit="1.45" shape-rendering="geometricPrecision" transform="matrix(1,0,0,1,478,430)" stroke-linecap="butt">
          <ellipse rx="24.7656" fill="none" ry="15" cx="-292.958" cy="272.352"/>
        </g>
      </a>
    </g>
    <g id="y.node.13">
      <a xlink:href="http://packages.gentoo.org/package/sys-apps/proot">
        <g fill="rgb(204,204,255)" text-rendering="geometricPrecision" shape-rendering="geometricPrecision" transform="matrix(1,0,0,1,478,430)" stroke="rgb(204,204,255)">
          <ellipse rx="31.3779" ry="15" cx="209.5354" cy="-340.727" stroke="none"/>
        </g>
        <g>
          <g stroke-linecap="butt" transform="matrix(1,0,0,1,478,430)" text-rendering="geometricPrecision" font-family="'DejaVu Sans'" shape-rendering="geometricPrecision" font-weight="bold" stroke-miterlimit="1.45">
            <text x="185.1575" xml:space="preserve" y="-336.5728" stroke="none">Gentoo</text>
          </g>
        </g>
        <g text-rendering="geometricPrecision" stroke-miterlimit="1.45" shape-rendering="geometricPrecision" transform="matrix(1,0,0,1,478,430)" stroke-linecap="butt">
          <ellipse rx="31.3779" fill="none" ry="15" cx="209.5354" cy="-340.727"/>
        </g>
      </a>
    </g>
    <g id="y.node.14">
      <a xlink:href="https://aur.archlinux.org/packages/proot/">
        <g fill="rgb(204,204,255)" text-rendering="geometricPrecision" shape-rendering="geometricPrecision" transform="matrix(1,0,0,1,478,430)" stroke="rgb(204,204,255)">
          <ellipse rx="42.8125" ry="15" cx="281.6788" cy="-284.0019" stroke="none"/>
        </g>
        <g>
          <g stroke-linecap="butt" transform="matrix(1,0,0,1,478,430)" text-rendering="geometricPrecision" font-family="'DejaVu Sans'" shape-rendering="geometricPrecision" font-weight="bold" stroke-miterlimit="1.45">
            <text x="245.8663" xml:space="preserve" y="-279.8476" stroke="none">Arch Linux</text>
          </g>
        </g>
        <g text-rendering="geometricPrecision" stroke-miterlimit="1.45" shape-rendering="geometricPrecision" transform="matrix(1,0,0,1,478,430)" stroke-linecap="butt">
          <ellipse rx="42.8125" fill="none" ry="15" cx="281.6788" cy="-284.0019"/>
        </g>
      </a>
    </g>
    <g id="y.node.15">
      <a xlink:href="https://launchpad.net/ubuntu/+source/proot">
        <g fill="rgb(204,204,255)" text-rendering="geometricPrecision" shape-rendering="geometricPrecision" transform="matrix(1,0,0,1,478,430)" stroke="rgb(204,204,255)">
          <ellipse rx="31.8496" ry="15" cx="-18.23" cy="-399.5844" stroke="none"/>
        </g>
        <g>
          <g stroke-linecap="butt" transform="matrix(1,0,0,1,478,430)" text-rendering="geometricPrecision" font-family="'DejaVu Sans'" shape-rendering="geometricPrecision" font-weight="bold" stroke-miterlimit="1.45">
            <text x="-43.0797" xml:space="preserve" y="-395.4301" stroke="none">Ubuntu</text>
          </g>
        </g>
        <g text-rendering="geometricPrecision" stroke-miterlimit="1.45" shape-rendering="geometricPrecision" transform="matrix(1,0,0,1,478,430)" stroke-linecap="butt">
          <ellipse rx="31.8496" fill="none" ry="15" cx="-18.23" cy="-399.5844"/>
        </g>
      </a>
    </g>
    <g id="y.node.16">
      <a xlink:href="http://gfxmonk.net/dist/0install/proot.xml">
        <g fill="rgb(204,204,255)" text-rendering="geometricPrecision" shape-rendering="geometricPrecision" transform="matrix(1,0,0,1,478,430)" stroke="rgb(204,204,255)">
          <ellipse rx="32.1045" ry="15" cx="63.9618" cy="-394.853" stroke="none"/>
        </g>
        <g>
          <g stroke-linecap="butt" transform="matrix(1,0,0,1,478,430)" text-rendering="geometricPrecision" font-family="'DejaVu Sans'" shape-rendering="geometricPrecision" font-weight="bold" stroke-miterlimit="1.45">
            <text x="38.8573" xml:space="preserve" y="-390.6987" stroke="none">0install</text>
          </g>
        </g>
        <g text-rendering="geometricPrecision" stroke-miterlimit="1.45" shape-rendering="geometricPrecision" transform="matrix(1,0,0,1,478,430)" stroke-linecap="butt">
          <ellipse rx="32.1045" fill="none" ry="15" cx="63.9618" cy="-394.853"/>
        </g>
      </a>
    </g>
    <g id="y.node.17">
      <a xlink:href="https://github.com/NixOS/nixpkgs/tree/master/pkgs/tools/system/proot">
        <g fill="rgb(204,204,255)" text-rendering="geometricPrecision" shape-rendering="geometricPrecision" transform="matrix(1,0,0,1,478,430)" stroke="rgb(204,204,255)">
          <ellipse rx="27.3701" ry="15" cx="139.7086" cy="-374.8086" stroke="none"/>
        </g>
        <g>
          <g stroke-linecap="butt" transform="matrix(1,0,0,1,478,430)" text-rendering="geometricPrecision" font-family="'DejaVu Sans'" shape-rendering="geometricPrecision" font-weight="bold" stroke-miterlimit="1.45">
            <text x="119.3385" xml:space="preserve" y="-370.6543" stroke="none">NixOS</text>
          </g>
        </g>
        <g text-rendering="geometricPrecision" stroke-miterlimit="1.45" shape-rendering="geometricPrecision" transform="matrix(1,0,0,1,478,430)" stroke-linecap="butt">
          <ellipse rx="27.3701" fill="none" ry="15" cx="139.7086" cy="-374.8086"/>
        </g>
      </a>
    </g>
    <g id="y.node.18">
      <a xlink:href="https://nixos.org/wiki/How_to_install_nix_in_home_%28on_another_distribution%29">
        <g fill="rgb(204,255,204)" text-rendering="geometricPrecision" shape-rendering="geometricPrecision" transform="matrix(1,0,0,1,478,430)" stroke="rgb(204,255,204)">
          <ellipse rx="27.3701" ry="15" cx="373.3514" cy="-143.5574" stroke="none"/>
        </g>
        <g>
          <g stroke-linecap="butt" transform="matrix(1,0,0,1,478,430)" text-rendering="geometricPrecision" font-family="'DejaVu Sans'" shape-rendering="geometricPrecision" font-weight="bold" stroke-miterlimit="1.45">
            <text x="352.9813" xml:space="preserve" y="-139.4031" stroke="none">NixOS</text>
          </g>
        </g>
        <g text-rendering="geometricPrecision" stroke-miterlimit="1.45" shape-rendering="geometricPrecision" transform="matrix(1,0,0,1,478,430)" stroke-linecap="butt">
          <ellipse rx="27.3701" fill="none" ry="15" cx="373.3514" cy="-143.5574"/>
        </g>
      </a>
    </g>
    <g id="y.node.19">
      <a xlink:href="https://aur.archlinux.org/packages/xampp/">
        <g fill="rgb(204,255,204)" text-rendering="geometricPrecision" shape-rendering="geometricPrecision" transform="matrix(1,0,0,1,478,430)" stroke="rgb(204,255,204)">
          <ellipse rx="45.9854" ry="15" cx="259.9668" cy="304.0021" stroke="none"/>
        </g>
        <g>
          <g stroke-linecap="butt" transform="matrix(1,0,0,1,478,430)" text-rendering="geometricPrecision" font-family="'DejaVu Sans'" shape-rendering="geometricPrecision" font-weight="bold" stroke-miterlimit="1.45">
            <text x="220.9814" xml:space="preserve" y="308.1564" stroke="none">xampp AUR</text>
          </g>
        </g>
        <g text-rendering="geometricPrecision" stroke-miterlimit="1.45" shape-rendering="geometricPrecision" transform="matrix(1,0,0,1,478,430)" stroke-linecap="butt">
          <ellipse rx="45.9854" fill="none" ry="15" cx="259.9668" cy="304.0021"/>
        </g>
      </a>
    </g>
    <g id="y.node.20">
      <a xlink:href="https://aur.archlinux.org/packages/hammerwatch/">
        <g fill="rgb(204,255,204)" text-rendering="geometricPrecision" shape-rendering="geometricPrecision" transform="matrix(1,0,0,1,478,430)" stroke="rgb(204,255,204)">
          <ellipse rx="71.3652" ry="15" cx="345.3766" cy="201.7795" stroke="none"/>
        </g>
        <g>
          <g stroke-linecap="butt" transform="matrix(1,0,0,1,478,430)" text-rendering="geometricPrecision" font-family="'DejaVu Sans'" shape-rendering="geometricPrecision" font-weight="bold" stroke-miterlimit="1.45">
            <text x="281.0114" xml:space="preserve" y="205.9338" stroke="none">hammerwatch AUR</text>
          </g>
        </g>
        <g text-rendering="geometricPrecision" stroke-miterlimit="1.45" shape-rendering="geometricPrecision" transform="matrix(1,0,0,1,478,430)" stroke-linecap="butt">
          <ellipse rx="71.3652" fill="none" ry="15" cx="345.3766" cy="201.7795"/>
        </g>
      </a>
    </g>
    <g onmouseout="HideTooltip(evt)" id="y.node.21" onmousemove="ShowTooltip(evt)">
      <g fill="rgb(153,255,255)" text-rendering="geometricPrecision" shape-rendering="geometricPrecision" transform="matrix(1,0,0,1,478,430)" stroke="rgb(153,255,255)">
        <ellipse rx="23.4883" ry="15" cx="-33.8982" cy="398.561" stroke="none"/>
      </g>
      <g>
        <g stroke-linecap="butt" transform="matrix(1,0,0,1,478,430)" text-rendering="geometricPrecision" font-family="'DejaVu Sans'" shape-rendering="geometricPrecision" font-weight="bold" stroke-miterlimit="1.45">
          <text x="-50.3865" xml:space="preserve" y="402.7153" stroke="none">Enea</text>
        </g>
      </g>
      <g text-rendering="geometricPrecision" stroke-miterlimit="1.45" shape-rendering="geometricPrecision" transform="matrix(1,0,0,1,478,430)" stroke-linecap="butt">
        <ellipse rx="23.4883" fill="none" ry="15" cx="-33.8982" cy="398.561"/>
      </g>
    </g>
    <g id="y.node.22">
      <a xlink:href="https://forge.ocamlcore.org/projects/opam2debian">
        <g fill="rgb(204,255,204)" text-rendering="geometricPrecision" shape-rendering="geometricPrecision" transform="matrix(1,0,0,1,478,430)" stroke="rgb(204,255,204)">
          <ellipse rx="55.0088" ry="15" cx="394.0602" cy="68.6771" stroke="none"/>
        </g>
        <g>
          <g stroke-linecap="butt" transform="matrix(1,0,0,1,478,430)" text-rendering="geometricPrecision" font-family="'DejaVu Sans'" shape-rendering="geometricPrecision" font-weight="bold" stroke-miterlimit="1.45">
            <text x="346.0515" xml:space="preserve" y="72.8314" stroke="none">OPAM2Debian</text>
          </g>
        </g>
        <g text-rendering="geometricPrecision" stroke-miterlimit="1.45" shape-rendering="geometricPrecision" transform="matrix(1,0,0,1,478,430)" stroke-linecap="butt">
          <ellipse rx="55.0088" fill="none" ry="15" cx="394.0602" cy="68.6771"/>
        </g>
      </a>
    </g>
    <g id="y.node.23">
      <a xlink:href="http://sioworkers.readthedocs.org/en/latest/">
        <g fill="rgb(204,255,204)" text-rendering="geometricPrecision" shape-rendering="geometricPrecision" transform="matrix(1,0,0,1,478,430)" stroke="rgb(204,255,204)">
          <ellipse rx="49.0322" ry="15" cx="396.6493" cy="-51.6653" stroke="none"/>
        </g>
        <g>
          <g stroke-linecap="butt" transform="matrix(1,0,0,1,478,430)" text-rendering="geometricPrecision" font-family="'DejaVu Sans'" shape-rendering="geometricPrecision" font-weight="bold" stroke-miterlimit="1.45">
            <text x="354.6171" xml:space="preserve" y="-47.511" stroke="none">SIO Workers</text>
          </g>
        </g>
        <g text-rendering="geometricPrecision" stroke-miterlimit="1.45" shape-rendering="geometricPrecision" transform="matrix(1,0,0,1,478,430)" stroke-linecap="butt">
          <ellipse rx="49.0322" fill="none" ry="15" cx="396.6493" cy="-51.6653"/>
        </g>
      </a>
    </g>
    <g id="y.node.24">
      <a xlink:href="http://adt.cs.upb.de/quf/">
        <g fill="rgb(255,255,153)" text-rendering="geometricPrecision" shape-rendering="geometricPrecision" transform="matrix(1,0,0,1,478,430)" stroke="rgb(255,255,153)">
          <ellipse rx="80.793" ry="15" cx="-250.0989" cy="-312.1707" stroke="none"/>
        </g>
        <g>
          <g stroke-linecap="butt" transform="matrix(1,0,0,1,478,430)" text-rendering="geometricPrecision" font-family="'DejaVu Sans'" shape-rendering="geometricPrecision" font-weight="bold" stroke-miterlimit="1.45">
            <text x="-323.8919" xml:space="preserve" y="-308.0164" stroke="none">QEMU workshop 2011</text>
          </g>
        </g>
        <g text-rendering="geometricPrecision" stroke-miterlimit="1.45" shape-rendering="geometricPrecision" transform="matrix(1,0,0,1,478,430)" stroke-linecap="butt">
          <ellipse rx="80.793" fill="none" ry="15" cx="-250.0989" cy="-312.1707"/>
        </g>
      </a>
    </g>
    <g id="y.node.25">
      <a xlink:href="http://www.slideshare.net/linaroorg/lcu14-211-lava-use-cases-sw-testing-reproducing-a-lava-failures-locally-using-care">
        <g fill="rgb(255,255,153)" text-rendering="geometricPrecision" shape-rendering="geometricPrecision" transform="matrix(1,0,0,1,478,430)" stroke="rgb(255,255,153)">
          <ellipse rx="76.7207" ry="15" cx="-358.2259" cy="-177.9724" stroke="none"/>
        </g>
        <g>
          <g stroke-linecap="butt" transform="matrix(1,0,0,1,478,430)" text-rendering="geometricPrecision" font-family="'DejaVu Sans'" shape-rendering="geometricPrecision" font-weight="bold" stroke-miterlimit="1.45">
            <text x="-427.9467" xml:space="preserve" y="-173.8181" stroke="none">Linaro Connect 2014</text>
          </g>
        </g>
        <g text-rendering="geometricPrecision" stroke-miterlimit="1.45" shape-rendering="geometricPrecision" transform="matrix(1,0,0,1,478,430)" stroke-linecap="butt">
          <ellipse rx="76.7207" fill="none" ry="15" cx="-358.2259" cy="-177.9724"/>
        </g>
      </a>
    </g>
    <g onmouseout="HideTooltip(evt)" id="y.node.26" onmousemove="ShowTooltip(evt)">
      <g fill="rgb(255,255,153)" text-rendering="geometricPrecision" shape-rendering="geometricPrecision" transform="matrix(1,0,0,1,478,430)" stroke="rgb(255,255,153)">
        <ellipse rx="63.8477" ry="15" cx="-399.067" cy="-27.305" stroke="none"/>
      </g>
      <g>
        <g stroke-linecap="butt" transform="matrix(1,0,0,1,478,430)" text-rendering="geometricPrecision" font-family="'DejaVu Sans'" shape-rendering="geometricPrecision" font-weight="bold" stroke-miterlimit="1.45">
          <text x="-455.9146" xml:space="preserve" y="-23.1507" stroke="none">many web pages</text>
        </g>
      </g>
      <g text-rendering="geometricPrecision" stroke-miterlimit="1.45" shape-rendering="geometricPrecision" transform="matrix(1,0,0,1,478,430)" stroke-linecap="butt">
        <ellipse rx="63.8477" fill="none" ry="15" cx="-399.067" cy="-27.305"/>
      </g>
    </g>
    <g onmouseout="HideTooltip(evt)" id="y.node.27" onmousemove="ShowTooltip(evt)">
      <g fill="rgb(153,255,255)" text-rendering="geometricPrecision" shape-rendering="geometricPrecision" transform="matrix(1,0,0,1,478,430)" stroke="rgb(153,255,255)">
        <ellipse rx="23.626" ry="15" cx="-241.8111" cy="318.6336" stroke="none"/>
      </g>
      <g>
        <g stroke-linecap="butt" transform="matrix(1,0,0,1,478,430)" text-rendering="geometricPrecision" font-family="'DejaVu Sans'" shape-rendering="geometricPrecision" font-weight="bold" stroke-miterlimit="1.45">
          <text x="-258.4371" xml:space="preserve" y="322.7879" stroke="none">Sony</text>
        </g>
      </g>
      <g text-rendering="geometricPrecision" stroke-miterlimit="1.45" shape-rendering="geometricPrecision" transform="matrix(1,0,0,1,478,430)" stroke-linecap="butt">
        <ellipse rx="23.626" fill="none" ry="15" cx="-241.8111" cy="318.6336"/>
      </g>
    </g>
    <g id="y.node.28">
      <g>
        <g stroke-linecap="butt" transform="matrix(1,0,0,1,478,430)" text-rendering="geometricPrecision" font-family="'DejaVu Sans'" shape-rendering="geometricPrecision" font-weight="bold" stroke-miterlimit="1.45">
          <text x="-97.0371" xml:space="preserve" y="167.4909" stroke="none">is used by</text>
        </g>
      </g>
      <g text-rendering="geometricPrecision" stroke-miterlimit="1.45" shape-rendering="geometricPrecision" transform="matrix(1,0,0,1,478,430)" stroke-linecap="butt">
        <rect fill="none" x="-104.0371" width="82.4375" height="30" y="148.3366"/>
      </g>
    </g>
    <g id="y.edge.3">
      <g text-rendering="geometricPrecision" stroke-miterlimit="1.45" shape-rendering="geometricPrecision" transform="matrix(1,0,0,1,478,430)" stroke-linecap="butt">
        <path fill="none" d="M-19.8783 10.2081 L-119.3471 61.2884"/>
      </g>
      <g text-rendering="geometricPrecision" stroke-miterlimit="1.45" shape-rendering="geometricPrecision" transform="matrix(1,0,0,1,478,430)" stroke-linecap="butt">
        <path d="M-126.4636 64.9429 L-113.5048 63.9089 L-118.4575 60.8316 L-118.0729 55.0133 Z" stroke="none"/>
      </g>
    </g>
    <g id="y.edge.14">
      <g text-rendering="geometricPrecision" stroke-miterlimit="1.45" shape-rendering="geometricPrecision" transform="matrix(1,0,0,1,478,430)" stroke-linecap="butt">
        <path fill="none" d="M-196.8772 84.7859 L-326.77 100.0531"/>
        <path d="M-334.7153 100.987 L-322.2137 104.552 L-325.7769 99.9364 L-323.381 94.6204 Z" stroke="none"/>
      </g>
    </g>
    <g id="y.edge.15">
      <g text-rendering="geometricPrecision" stroke-miterlimit="1.45" shape-rendering="geometricPrecision" transform="matrix(1,0,0,1,478,430)" stroke-linecap="butt">
        <path fill="none" d="M-177.5951 94.9429 L-316.4721 189.9689"/>
        <path d="M-323.0745 194.4865 L-310.3474 191.8366 L-315.6469 189.4042 L-315.9945 183.5836 Z" stroke="none"/>
      </g>
    </g>
    <g id="y.edge.0">
      <g text-rendering="geometricPrecision" stroke-miterlimit="1.45" shape-rendering="geometricPrecision" transform="matrix(1,0,0,1,478,430)" stroke-linecap="butt">
        <path fill="none" d="M18.0564 11.1953 L117.7398 73.0007"/>
        <path d="M124.539 77.2163 L116.9749 66.6434 L116.8899 72.4737 L111.7055 75.1424 Z" stroke="none"/>
      </g>
    </g>
    <g id="y.edge.17">
      <g text-rendering="geometricPrecision" stroke-miterlimit="1.45" shape-rendering="geometricPrecision" transform="matrix(1,0,0,1,478,430)" stroke-linecap="butt">
        <path fill="none" d="M143.9327 107.2163 L58.5233 374.1693"/>
        <path d="M56.0855 381.7888 L64.5044 371.8831 L58.828 373.2168 L54.98 368.8359 Z" stroke="none"/>
      </g>
    </g>
    <g id="y.edge.18">
      <g text-rendering="geometricPrecision" stroke-miterlimit="1.45" shape-rendering="geometricPrecision" transform="matrix(1,0,0,1,478,430)" stroke-linecap="butt">
        <path fill="none" d="M149.4003 107.2163 L159.9166 343.2029"/>
        <path d="M160.2728 351.195 L164.7336 338.9843 L159.8721 342.2039 L154.7435 339.4295 Z" stroke="none"/>
      </g>
    </g>
    <g id="y.edge.1">
      <g text-rendering="geometricPrecision" stroke-miterlimit="1.45" shape-rendering="geometricPrecision" transform="matrix(1,0,0,1,478,430)" stroke-linecap="butt">
        <path fill="none" d="M7.5182 -14.4125 L69.4125 -133.0656"/>
        <path d="M73.1125 -140.1586 L63.1294 -131.8316 L68.95 -132.179 L71.9957 -127.2066 Z" stroke="none"/>
      </g>
    </g>
    <g id="y.edge.4">
      <g text-rendering="geometricPrecision" stroke-miterlimit="1.45" shape-rendering="geometricPrecision" transform="matrix(1,0,0,1,478,430)" stroke-linecap="butt">
        <path fill="none" d="M130.9245 -166.343 L302.9447 -204.8317"/>
        <path d="M310.7517 -206.5784 L297.9495 -208.8377 L301.9689 -204.6133 L300.133 -199.0789 Z" stroke="none"/>
      </g>
    </g>
    <g id="y.edge.2">
      <g text-rendering="geometricPrecision" stroke-miterlimit="1.45" shape-rendering="geometricPrecision" transform="matrix(1,0,0,1,478,430)" stroke-linecap="butt">
        <path fill="none" d="M-15.8486 -12.1744 L-112.9091 -86.7336"/>
        <path d="M-119.2533 -91.607 L-112.7829 -80.3317 L-112.116 -86.1244 L-106.691 -88.262 Z" stroke="none"/>
      </g>
    </g>
    <g id="y.edge.10">
      <g text-rendering="geometricPrecision" stroke-miterlimit="1.45" shape-rendering="geometricPrecision" transform="matrix(1,0,0,1,478,430)" stroke-linecap="butt">
        <path fill="none" d="M-137.6777 -121.607 L-120.2249 -359.0578"/>
        <path d="M-119.6385 -367.0363 L-125.5047 -355.4351 L-120.2982 -358.0605 L-115.5316 -354.7021 Z" stroke="none"/>
      </g>
    </g>
    <g id="y.edge.16">
      <g text-rendering="geometricPrecision" stroke-miterlimit="1.45" shape-rendering="geometricPrecision" transform="matrix(1,0,0,1,478,430)" stroke-linecap="butt">
        <path fill="none" d="M-166.3757 94.9429 L-278.487 252.0705"/>
        <path d="M-283.1336 258.5827 L-272.0936 251.7184 L-277.9062 251.2564 L-280.2339 245.9102 Z" stroke="none"/>
      </g>
    </g>
    <g id="y.edge.6">
      <g text-rendering="geometricPrecision" stroke-miterlimit="1.45" shape-rendering="geometricPrecision" transform="matrix(1,0,0,1,478,430)" stroke-linecap="butt">
        <path fill="none" d="M91.3321 -170.1586 L195.1111 -319.9126"/>
        <path d="M199.6678 -326.4881 L188.7231 -319.4729 L194.5415 -319.0907 L196.9424 -313.777 Z" stroke="none"/>
      </g>
    </g>
    <g id="y.edge.5">
      <g text-rendering="geometricPrecision" stroke-miterlimit="1.45" shape-rendering="geometricPrecision" transform="matrix(1,0,0,1,478,430)" stroke-linecap="butt">
        <path fill="none" d="M104.3076 -170.1586 L254.4331 -266.5146"/>
        <path d="M261.1656 -270.8358 L248.3661 -268.5618 L253.5915 -265.9745 L253.7676 -260.1461 Z" stroke="none"/>
      </g>
    </g>
    <g id="y.edge.9">
      <g text-rendering="geometricPrecision" stroke-miterlimit="1.45" shape-rendering="geometricPrecision" transform="matrix(1,0,0,1,478,430)" stroke-linecap="butt">
        <path fill="none" d="M74.8514 -170.1586 L-9.2449 -377.4378"/>
        <path d="M-12.2525 -384.8509 L-12.3742 -371.8515 L-8.8689 -376.5112 L-3.1079 -375.611 Z" stroke="none"/>
      </g>
    </g>
    <g id="y.edge.8">
      <g text-rendering="geometricPrecision" stroke-miterlimit="1.45" shape-rendering="geometricPrecision" transform="matrix(1,0,0,1,478,430)" stroke-linecap="butt">
        <path fill="none" d="M79.8748 -170.1586 L65.5887 -371.8812"/>
        <path d="M65.0236 -379.8612 L60.8838 -367.538 L65.6594 -370.8837 L70.8588 -368.2444 Z" stroke="none"/>
      </g>
    </g>
    <g id="y.edge.7">
      <g text-rendering="geometricPrecision" stroke-miterlimit="1.45" shape-rendering="geometricPrecision" transform="matrix(1,0,0,1,478,430)" stroke-linecap="butt">
        <path fill="none" d="M84.9507 -170.1586 L133.6698 -352.2392"/>
        <path d="M135.7376 -359.9673 L127.8058 -349.6675 L133.4113 -351.2732 L137.466 -347.0828 Z" stroke="none"/>
      </g>
    </g>
    <g id="y.edge.23">
      <g text-rendering="geometricPrecision" stroke-miterlimit="1.45" shape-rendering="geometricPrecision" transform="matrix(1,0,0,1,478,430)" stroke-linecap="butt">
        <path fill="none" d="M163.0222 77.2163 L355.1656 -124.4685"/>
        <path d="M360.6837 -130.2607 L348.7863 -125.0213 L354.4758 -123.7445 L356.0266 -118.1235 Z" stroke="none"/>
      </g>
    </g>
    <g id="y.edge.19">
      <g text-rendering="geometricPrecision" stroke-miterlimit="1.45" shape-rendering="geometricPrecision" transform="matrix(1,0,0,1,478,430)" stroke-linecap="butt">
        <path fill="none" d="M156.6102 107.2163 L248.4816 282.135"/>
        <path d="M252.2016 289.2175 L251.0483 276.2688 L248.0166 281.2497 L242.1951 280.9186 Z" stroke="none"/>
      </g>
    </g>
    <g id="y.edge.20">
      <g text-rendering="geometricPrecision" stroke-miterlimit="1.45" shape-rendering="geometricPrecision" transform="matrix(1,0,0,1,478,430)" stroke-linecap="butt">
        <path fill="none" d="M175.6539 107.2163 L313.1989 183.8512"/>
        <path d="M320.1873 187.745 L312.1382 177.5366 L312.3253 183.3645 L307.2711 186.2722 Z" stroke="none"/>
      </g>
    </g>
    <g id="y.edge.21">
      <g text-rendering="geometricPrecision" stroke-miterlimit="1.45" shape-rendering="geometricPrecision" transform="matrix(1,0,0,1,478,430)" stroke-linecap="butt">
        <path fill="none" d="M188.0727 88.4415 L334.2067 74.42"/>
        <path d="M342.1701 73.6559 L329.7474 69.8249 L333.2112 74.5155 L330.7025 79.7792 Z" stroke="none"/>
      </g>
    </g>
    <g id="y.edge.22">
      <g text-rendering="geometricPrecision" stroke-miterlimit="1.45" shape-rendering="geometricPrecision" transform="matrix(1,0,0,1,478,430)" stroke-linecap="butt">
        <path fill="none" d="M174.5778 77.2163 L366.8662 -34.3804"/>
        <path d="M373.7853 -38.396 L360.8968 -36.697 L366.0013 -33.8784 L365.9164 -28.0481 Z" stroke="none"/>
      </g>
    </g>
    <g id="y.edge.11">
      <g text-rendering="geometricPrecision" stroke-miterlimit="1.45" shape-rendering="geometricPrecision" transform="matrix(1,0,0,1,478,430)" stroke-linecap="butt">
        <path fill="none" d="M-146.9031 -121.607 L-238.2072 -290.2112"/>
        <path d="M-242.0167 -297.2459 L-240.6992 -284.3129 L-237.731 -289.3318 L-231.9057 -289.0748 Z" stroke="none"/>
      </g>
    </g>
    <g id="y.edge.12">
      <g text-rendering="geometricPrecision" stroke-miterlimit="1.45" shape-rendering="geometricPrecision" transform="matrix(1,0,0,1,478,430)" stroke-linecap="butt">
        <path fill="none" d="M-184.9046 -121.607 L-311.0877 -162.6427"/>
        <path d="M-318.6955 -165.1168 L-308.8301 -156.6508 L-310.1367 -162.3334 L-305.7375 -166.1605 Z" stroke="none"/>
      </g>
    </g>
    <g id="y.edge.13">
      <g text-rendering="geometricPrecision" stroke-miterlimit="1.45" shape-rendering="geometricPrecision" transform="matrix(1,0,0,1,478,430)" stroke-linecap="butt">
        <path fill="none" d="M-188.0135 -91.607 L-352.4261 -41.5151"/>
        <path d="M-360.0789 -39.1835 L-347.1426 -37.898 L-351.4696 -41.8066 L-350.057 -47.4638 Z" stroke="none"/>
      </g>
    </g>
    <g id="y.edge.24">
      <g text-rendering="geometricPrecision" stroke-miterlimit="1.45" shape-rendering="geometricPrecision" transform="matrix(1,0,0,1,478,430)" stroke-linecap="butt">
        <path fill="none" d="M-5.6428 14.672 L-54.1777 140.8698"/>
        <path d="M-57.0494 148.3366 L-48.0751 138.9312 L-53.8187 139.9365 L-57.4086 135.3416 Z" stroke="none"/>
      </g>
    </g>
    <g id="y.edge.25">
      <g text-rendering="geometricPrecision" stroke-miterlimit="1.45" shape-rendering="geometricPrecision" transform="matrix(1,0,0,1,478,430)" stroke-linecap="butt">
        <path fill="none" d="M-80.1071 178.3366 L-221.8163 301.2858"/>
        <path d="M-227.859 306.5285 L-215.5183 302.4411 L-221.061 300.6305 L-222.0717 294.8878 Z" stroke="none"/>
      </g>
    </g>
    <g id="y.edge.26">
      <g text-rendering="geometricPrecision" stroke-miterlimit="1.45" shape-rendering="geometricPrecision" transform="matrix(1,0,0,1,478,430)" stroke-linecap="butt">
        <path fill="none" d="M-68.5783 178.3366 L-134.8672 350.9631"/>
        <path d="M-137.735 358.4314 L-128.7656 349.0213 L-134.5087 350.0295 L-138.101 345.4365 Z" stroke="none"/>
      </g>
    </g>
    <g id="y.edge.27">
      <g text-rendering="geometricPrecision" stroke-miterlimit="1.45" shape-rendering="geometricPrecision" transform="matrix(1,0,0,1,478,430)" stroke-linecap="butt">
        <path fill="none" d="M-60.9741 178.3366 L-36.713 375.6669"/>
        <path d="M-35.7368 383.6071 L-32.2385 371.0866 L-36.835 374.6743 L-42.1638 372.3069 Z" stroke="none"/>
      </g>
    </g>
    <g visibility="hidden" id="tooltip.y.node.5" pointer-events="none">
      <g fill="rgb(195,212,232)" text-rendering="geometricPrecision" shape-rendering="geometricPrecision" font-family="sans-serif" stroke="rgb(195,212,232)">
        <rect x="0" width="173" height="17" y="0" clip-path="url(#clipPath3)" stroke="none"/>
        <text fill="black" x="4" xml:space="preserve" y="13" clip-path="url(#clipPath3)" stroke="none">has some derivative works</text>
      </g>
      <g fill="rgb(49,106,196)" text-rendering="geometricPrecision" shape-rendering="geometricPrecision" font-family="sans-serif" stroke="rgb(49,106,196)">
        <path d="M0 0 L173 0 L173 17 L0 17 L0 0 ZM1 1 L172 1 L172 16 L1 16 L1 1 Z" clip-path="url(#clipPath3)" fill-rule="evenodd" stroke="none"/>
      </g>
    </g>
    <g visibility="hidden" id="tooltip.y.node.10" pointer-events="none">
      <g fill="rgb(195,212,232)" text-rendering="geometricPrecision" shape-rendering="geometricPrecision" font-family="sans-serif" stroke="rgb(195,212,232)">
        <rect x="0" width="302" height="17" y="0" clip-path="url(#clipPath4)" stroke="none"/>
        <text fill="black" x="4" xml:space="preserve" y="13" clip-path="url(#clipPath4)" stroke="none">Copyright holder and unique sponsor of PRoot.</text>
        <text fill="black" x="298" xml:space="preserve" y="13" clip-path="url(#clipPath4)" stroke="none"> </text>
      </g>
      <g fill="rgb(49,106,196)" text-rendering="geometricPrecision" shape-rendering="geometricPrecision" font-family="sans-serif" stroke="rgb(49,106,196)">
        <path d="M0 0 L302 0 L302 17 L0 17 L0 0 ZM1 1 L301 1 L301 16 L1 16 L1 1 Z" clip-path="url(#clipPath4)" fill-rule="evenodd" stroke="none"/>
      </g>
    </g>
    <g visibility="hidden" id="tooltip.y.node.11" pointer-events="none">
      <g fill="rgb(195,212,232)" text-rendering="geometricPrecision" shape-rendering="geometricPrecision" font-family="sans-serif" stroke="rgb(195,212,232)">
        <rect x="0" width="92" height="17" y="0" clip-path="url(#clipPath5)" stroke="none"/>
        <text fill="black" x="4" xml:space="preserve" y="13" clip-path="url(#clipPath5)" stroke="none">Lightning talk</text>
      </g>
      <g fill="rgb(49,106,196)" text-rendering="geometricPrecision" shape-rendering="geometricPrecision" font-family="sans-serif" stroke="rgb(49,106,196)">
        <path d="M0 0 L92 0 L92 17 L0 17 L0 0 ZM1 1 L91 1 L91 16 L1 16 L1 1 Z" clip-path="url(#clipPath5)" fill-rule="evenodd" stroke="none"/>
      </g>
    </g>
    <g visibility="hidden" id="tooltip.y.node.21" pointer-events="none">
      <g fill="rgb(195,212,232)" text-rendering="geometricPrecision" shape-rendering="geometricPrecision" font-family="sans-serif" stroke="rgb(195,212,232)">
        <rect x="0" width="659" height="17" y="0" clip-path="url(#clipPath6)" stroke="none"/>
        <text fill="black" x="4" xml:space="preserve" y="13" clip-path="url(#clipPath6)" stroke="none">Enea uses PRoot in an internal tool (host environment for API testing of target software) at a customer.</text>
      </g>
      <g fill="rgb(49,106,196)" text-rendering="geometricPrecision" shape-rendering="geometricPrecision" font-family="sans-serif" stroke="rgb(49,106,196)">
        <path d="M0 0 L659 0 L659 17 L0 17 L0 0 ZM1 1 L658 1 L658 16 L1 16 L1 1 Z" clip-path="url(#clipPath6)" fill-rule="evenodd" stroke="none"/>
      </g>
    </g>
    <g visibility="hidden" id="tooltip.y.node.26" pointer-events="none">
      <g fill="rgb(195,212,232)" text-rendering="geometricPrecision" shape-rendering="geometricPrecision" font-family="sans-serif" stroke="rgb(195,212,232)">
        <rect x="0" width="432" height="17" y="0" clip-path="url(#clipPath7)" stroke="none"/>
        <text fill="black" x="4" xml:space="preserve" y="13" clip-path="url(#clipPath7)" stroke="none">About 175 domains references http://proot.me according to Google</text>
      </g>
      <g fill="rgb(49,106,196)" text-rendering="geometricPrecision" shape-rendering="geometricPrecision" font-family="sans-serif" stroke="rgb(49,106,196)">
        <path d="M0 0 L432 0 L432 17 L0 17 L0 0 ZM1 1 L431 1 L431 16 L1 16 L1 1 Z" clip-path="url(#clipPath7)" fill-rule="evenodd" stroke="none"/>
      </g>
    </g>
    <g visibility="hidden" id="tooltip.y.node.27" pointer-events="none">
      <g fill="rgb(195,212,232)" text-rendering="geometricPrecision" shape-rendering="geometricPrecision" font-family="sans-serif" stroke="rgb(195,212,232)">
        <rect x="0" width="496" height="17" y="0" clip-path="url(#clipPath8)" stroke="none"/>
        <text fill="black" x="4" xml:space="preserve" y="13" clip-path="url(#clipPath8)" stroke="none">Sony has an internal wiki page about CE Linux that references http://proot.me</text>
      </g>
      <g fill="rgb(49,106,196)" text-rendering="geometricPrecision" shape-rendering="geometricPrecision" font-family="sans-serif" stroke="rgb(49,106,196)">
        <path d="M0 0 L496 0 L496 17 L0 17 L0 0 ZM1 1 L495 1 L495 16 L1 16 L1 1 Z" clip-path="url(#clipPath8)" fill-rule="evenodd" stroke="none"/>
      </g>
    </g>
  </g>
</svg>
